<?xml version="1.0" encoding="utf-8"?>
<!-- Generator: Adobe Illustrator 16.0.0, SVG Export Plug-In . SVG Version: 6.00 Build 0)  -->
<!DOCTYPE svg PUBLIC "-//W3C//DTD SVG 1.1//EN" "http://www.w3.org/Graphics/SVG/1.1/DTD/svg11.dtd">
<svg version="1.1" xmlns="http://www.w3.org/2000/svg" xmlns:xlink="http://www.w3.org/1999/xlink" x="0px" y="0px" width="500px"
	 height="500px" viewBox="0 0 500 500" enable-background="new 0 0 500 500" xml:space="preserve">
<g id="Layer_2">
	<rect fill-rule="evenodd" clip-rule="evenodd" width="500" height="500"/>
</g>
<g id="Layer_1">
	<g>
		<path fill-rule="evenodd" clip-rule="evenodd" fill="#F5F5F5" d="M237.204,458.915c34.713-26.21,70.336-49.778,88.369-88.941
			c4.589-0.519,8.409-0.95,12.229-1.381c-2.596-3.878-4.792-8.13-7.937-11.494c-1.878-2.012-5.245-2.638-7.807-3.824
			c0-10.025,0-19.769,0-30.479c12.608-2.765,20.182-10.387,21.837-24.517c0.691-5.892,6.013-11.131,8.595-16.948
			c1.8-4.063,3.78-8.713,3.41-12.903c-0.445-5.074-3.884-7.968-10.158-5.852c-1.791,0.604-4.896-2.687-7.345-4.162
			c-4.452,3.594-8.566,6.915-13.253,10.697c2.288,4.884,4.771,10.181,7.251,15.476c-0.461,0.417-0.927,0.833-1.388,1.248
			c-1.987-1.634-3.977-3.27-8.431-6.929c-1.926,9.223-4.575,16.459-4.778,23.766c-1.204,43.663-20.929,74.877-61.197,92.35
			c-18.881,8.191-41.197,12.604-58.522,5.365c-24.052-10.048-46.675-26.898-51.262-57.079c-0.457-3.003-2.084-6.059-1.736-8.914
			c2.277-18.745-9.483-27.938-22.828-37.786c-21.471-15.849-42.737-32.334-61.952-50.776c-20.362-19.545-28.918-45.614-29.78-73.619
			c-0.926-30.11,16.876-48.278,48.704-48.676c25.981-0.324,51.99,1.574,79.583,2.544c0.339-1.612,0.989-5.48,1.978-9.258
			c3.083-11.774,5.352-23.876,9.658-35.196c8.345-21.931,24.111-35.693,48.061-38.491c9.401-1.099,18.904-2.23,28.33-2.025
			c19.705,0.427,34.95,9.002,45.16,26.373c7.372,12.542,15.779,24.477,23.088,37.054c3.178,5.47,6.831,6.793,12.988,7.122
			c21.231,1.123,42.842,1.21,63.501,5.543c34.772,7.294,56.354,37.102,58.647,72.598c3.621,56.001-23.696,93.211-69.667,119.995
			c-3.218,1.877-6.791,3.344-9.56,5.736c-2.399,2.077-6.08,6.708-5.448,7.626c5.927,8.593-2.669,17.493,1.131,26.05
			c1.25,2.813,0.36,6.561,0.537,9.874c0.312,5.879,0.689,11.752,0.964,16.365c-4.353,3.723-9.632,7.088-13.323,11.717
			c-3.821,4.796-2.291,9.686,2.271,14.36c4.136,4.237,8.39,9.396,9.936,14.895c2.774,9.876,9.242,14.545,18.117,17.221
			c27.159,8.187,54.342,16.294,84.336,25.277C390.891,458.915,314.926,458.915,237.204,458.915z M241.489,216.434
			c-8.32-9.139-15.193-16.984-22.582-24.308c-0.678-0.672-5.688,1.321-6.902,3.22c-3.445,5.384-6.228,11.246-8.774,17.137
			c-2.314,5.356-3.924,11.013-5.944,16.503c-1.636,4.446-3.418,8.838-5.136,13.257c-1.05-0.401-2.102-0.801-3.152-1.201
			c0-3.279,0.021-6.561-0.003-9.84c-0.085-11.424-3.673-14.438-14.358-10.699c-6.049,2.117-11.511,5.913-16.747,8.691
			c-5.644-12.718,10.722-14.597,13.6-24.223c-16.602-0.056-22.535,3.631-23.205,17.533c-1.352,28.042-1.443,56.159-1.393,84.243
			c0.009,5.126,3.156,10.244,4.854,15.366c7.063-15.278,15.861-26.92,28.715-36.061c6.262-4.454,11.196-11.431,3.619-21.07
			c5.001-0.312,9.207,0.23,13.097,1.644c9.224,3.348,12.973,14.146,24.085,16.185c8.664,1.591,17.594,6.368,24.422,12.095
			c7.708,6.466,13.643,15.267,19.502,23.643c4.229,6.042,7.975,7.435,14.024,2.763c15.591-12.045,24.614-27.515,25.998-47.349
			c0.227-3.222,0.568-7.238,2.508-9.407c11.077-12.374,9.995-26.116,7.01-41.057c-3.696-18.502-21.352-20.756-32.602-33.86
			c-1.056,6.815-1.596,10.31-2.135,13.792c-6.241-1.62-12.103-3.141-17.964-4.663c-0.779,1.225-1.558,2.451-2.337,3.675
			c4.886,4.971,9.771,9.939,13.75,13.992C262.645,216.434,251.243,216.434,241.489,216.434z M256.253,337.01
			c1.002-1.188,2.001-2.377,3.003-3.565c-4.527-5.742-7.921-14.159-13.82-16.662c-11.624-4.929-24.587-6.813-37.109-9.415
			c-3.097-0.644-6.7,0.489-9.938,1.32c-6.458,1.657-12.776,3.855-19.241,5.483c-6.336,1.596-9.822,4.923-10.248,11.867
			c-0.434,7.08,3.313,10.718,9.272,10.662c7.082-0.064,14.121-2.248,21.226-3.125c4.922-0.606,11.007-2.5,14.7-0.449
			C228.019,340.857,242.069,338.171,256.253,337.01z"/>
		<path fill-rule="evenodd" clip-rule="evenodd" fill="#F5F5F5" d="M136.042,458.143c15.659-15.854,30.677-31.061,46.358-46.935
			c4.396,15.461,8.753,30.783,13.346,46.935C175.101,458.143,155.66,458.143,136.042,458.143z"/>
	</g>
	<g>
	</g>
	<g>
	</g>
	<g>
	</g>
	<g>
	</g>
	<g>
	</g>
	<g>
	</g>
	<g>
	</g>
	<g>
	</g>
	<g>
	</g>
	<g>
	</g>
	<g>
	</g>
	<g>
	</g>
	<g>
	</g>
	<g>
	</g>
	<g>
	</g>
</g>
</svg>
